# xmcd CD database file
#
# Track frame offsets:
#	150
#	13069
#	31371
#	49765
#	66792
#	80026
#	95991
#	109297
#	122814
#	139138
#	149343
#	161260
#	175468
#	194319
#	210129
#	223379
#	244655
#	257054
#
# Disc length: 3671 seconds
#
# Revision: 0
# Processed by: cddbd v1.4PL0 Copyright (c) Steve Scherf et al.
# Submitted via: CDex 1.40Beta6
#
DISCID=110e5512
DTITLE=Various Artist - Fever
DYEAR=2001
DGENRE=Country
TTITLE0=Trisha Yearwood - X' and O's
TTITLE1=Trisha Yearwood - She's In Love With The Boy
TTITLE2=Trisha Yearwood - How Do I Live
TTITLE3=Trisha Yearwood - I Would've Loved You Always
TTITLE4=Sammy Kershaw - She Don't Know She's Beautiful
TTITLE5=Sammy Kershaw - Queen Of My Double Wide Trailer
TTITLE6=Sammy Kershaw - Cadillac Style
TTITLE7=Little Texas - She's Cool
TTITLE8=Little Texas - A Night I'll Never Remember
TTITLE9=Garth Brooks - Long Neck Bottle
TTITLE10=Garth Brooks - Fever
TTITLE11=Faith Hill - The Way You Love Me
TTITLE12=Faith Hill - Breathe
TTITLE13=Aaron Tippin - Workin' Man's P H D
TTITLE14=Aaron Tippin - Honky Tonk Superman
TTITLE15=Roy Clark - Thank God And Grehound (live)
TTITLE16=Roy Clark - Green Grass Of Home (live - Unpublished Version)
TTITLE17=Bob Seger - American Storm
EXTD=
EXTT0=
EXTT1=
EXTT2=
EXTT3=
EXTT4=
EXTT5=
EXTT6=
EXTT7=
EXTT8=
EXTT9=
EXTT10=
EXTT11=
EXTT12=
EXTT13=
EXTT14=
EXTT15=
EXTT16=
EXTT17=
PLAYORDER=
